# author: headus 3D tools
#  using: ply2obj v1.8
#   from: uvlayout v2.09.04
mtllib stairs.mtl
# 128 vertices
v -64.30600 11.70100 -191.26400
v -49.80029 11.70100 -191.26400
v -64.30600 164.74508 197.64136
v -49.80029 164.74508 197.64136
v -64.30600 179.04761 173.96564
v -49.80029 179.04761 173.96564
v -64.30600 26.00364 -214.93970
v -49.80029 26.00364 -214.93970
v -64.30600 80.43290 -85.30459
v -64.30600 62.71570 -61.62888
v -49.80029 62.71570 -61.62888
v -49.80029 80.43290 -85.30459
v -64.30600 133.44500 44.33054
v -64.30600 113.73039 68.00622
v -49.80029 113.73039 68.00622
v -49.80029 133.44500 44.33054
v -50.01244 41.06491 -171.80961
v 49.86513 41.06491 -171.80961
v 49.98756 41.06491 -123.76960
v -50.01244 41.06491 -123.76960
v 49.98756 63.14993 -62.82209
v -50.01244 63.14993 -62.82209
v 48.67780 63.14993 -123.76960
v -50.01244 63.14993 -123.76960
v 49.98756 86.75361 -3.49868
v -50.01244 86.75361 -3.49868
v 49.68504 86.75361 -62.82209
v -50.01244 86.75361 -62.82209
v 49.98756 110.35730 52.60494
v -50.01244 110.35730 52.60494
v 48.72988 110.35730 -3.49868
v -50.01244 110.35730 -3.49868
v 49.98756 133.09707 108.70866
v -50.01244 133.09707 108.70866
v 49.98756 133.09705 52.60494
v -50.01244 133.09705 52.60494
v -50.01244 152.83280 164.81224
v 49.98756 152.83280 164.81224
v 49.98756 152.83280 108.70866
v -50.01244 152.83280 108.70866
v -50.01244 161.36242 164.81224
v 49.98756 161.36242 164.81224
v 49.98756 161.36242 108.70866
v -50.01244 161.36242 108.70866
v 49.98756 49.59454 -123.76960
v -50.01244 49.59454 -123.76960
v 49.86513 49.59454 -171.80961
v -50.01244 49.59454 -171.80961
v 49.98756 71.67956 -62.82209
v -50.01244 71.67956 -62.82209
v 48.67780 71.67956 -123.76960
v -50.01244 71.67956 -123.76960
v 49.98756 95.28325 -3.49868
v -50.01244 95.28325 -3.49868
v 49.68504 95.28325 -62.82209
v -50.01244 95.28325 -62.82209
v 49.98756 118.88692 52.60494
v -50.01244 118.88692 52.60494
v 48.72988 118.88692 -3.49868
v -50.01244 118.88692 -3.49868
v 49.98756 141.62668 108.70868
v -50.01244 141.62668 108.70868
v 49.98756 141.62668 52.60494
v -50.01244 141.62668 52.60494
v 16.65422 46.19752 -171.80961
v 16.65422 41.06491 -171.80961
v 16.65422 41.06491 -123.76960
v 16.65422 46.19750 -123.76960
v -16.67910 46.19752 -171.80961
v -16.67910 41.06491 -171.80961
v -16.67910 41.06491 -123.76960
v -16.67910 46.19750 -123.76960
v -16.67910 68.81182 -123.76960
v -16.67910 71.67956 -62.82209
v -16.67910 63.14993 -62.82209
v -16.67910 63.14993 -123.76960
v 16.65422 71.67956 -123.76960
v 16.65422 71.67956 -62.82209
v 16.65422 63.14993 -62.82209
v 16.65422 63.14993 -123.76960
v -16.68193 94.21111 -62.89584
v -16.67910 95.28325 -3.49868
v -16.67910 86.75361 -3.49868
v -16.67910 86.75361 -62.82209
v 16.65422 92.55333 -62.82209
v 16.65422 95.28325 -3.49868
v 16.65422 86.75361 -3.49868
v 16.65422 86.75361 -62.82209
v -16.67910 115.67391 -3.49868
v -16.67910 115.67391 52.60494
v -16.67910 110.35730 52.60494
v -16.67910 110.35730 -3.49868
v 16.65422 115.67391 -3.49868
v 16.65422 115.67391 52.60494
v 16.65422 110.35730 52.60494
v 16.65422 110.35730 -3.49868
v -16.67910 138.93308 52.60494
v -16.67910 141.62668 108.70868
v -16.67910 133.09705 108.70866
v -16.67910 133.09705 52.60494
v 16.65422 138.93308 52.60494
v 16.65422 141.62668 108.70868
v 16.65422 133.09705 108.70866
v 16.65422 133.09705 52.60494
v -16.67910 158.55331 108.70866
v -16.67910 158.55334 164.81224
v -16.67910 152.83280 164.81224
v -16.67910 152.83280 108.70866
v 16.65422 158.55334 108.70866
v 16.65422 158.55334 164.81224
v 16.65422 152.83280 164.81224
v 16.65422 152.83280 108.70866
v 49.38805 11.70100 -191.26400
v 63.89377 11.70100 -191.26400
v 49.38805 164.74508 197.64136
v 63.89377 164.74508 197.64136
v 49.38805 179.04761 173.96560
v 63.89377 179.04761 173.96560
v 49.38805 26.00363 -214.93972
v 63.89377 26.00363 -214.93972
v 49.38805 80.43291 -85.30458
v 49.38805 62.71569 -61.62888
v 63.89377 62.71569 -61.62888
v 63.89377 80.43291 -85.30458
v 49.38805 133.44499 44.33054
v 49.38805 113.73039 68.00622
v 63.89377 113.73039 68.00622
v 63.89377 133.44499 44.33054
# 320 normals
vn 0.000000 -0.930477 0.366172
vn 0.000000 -0.930477 0.366172
vn 0.000000 -0.930477 0.366172
vn 0.000000 -0.930477 0.366172
vn 0.000000 0.855857 0.517060
vn 0.000000 0.855857 0.517060
vn 0.000000 0.855857 0.517060
vn 0.000000 0.855857 0.517060
vn 0.000000 0.943325 -0.331838
vn 0.000000 0.943325 -0.331838
vn 0.000000 0.934658 -0.355460
vn 0.000000 0.934658 -0.355460
vn 0.000000 -0.855857 -0.517060
vn 0.000000 -0.855857 -0.517060
vn 0.000000 -0.855857 -0.517060
vn 0.000000 -0.855857 -0.517060
vn 1.000000 0.000000 0.000000
vn 1.000000 0.000000 0.000000
vn 1.000000 0.000000 0.000000
vn 1.000000 0.000000 0.000000
vn -1.000000 0.000000 0.000000
vn -1.000000 0.000000 0.000000
vn -1.000000 0.000000 0.000000
vn -1.000000 0.000000 0.000000
vn -1.000000 0.000000 0.000000
vn -1.000000 0.000000 0.000000
vn -1.000000 0.000000 0.000000
vn -1.000000 0.000000 0.000000
vn 0.000000 -0.930477 0.366172
vn 0.000000 -0.930477 0.366172
vn 0.000000 -0.930477 0.366172
vn 0.000000 -0.930477 0.366172
vn 1.000000 0.000000 0.000000
vn 1.000000 0.000000 0.000000
vn 1.000000 0.000000 0.000000
vn 1.000000 0.000000 0.000000
vn 0.000000 0.923793 -0.382805
vn 0.000000 0.923793 -0.382805
vn 0.000000 0.921962 -0.387048
vn 0.000000 0.921962 -0.387048
vn -0.042086 0.999084 0.000000
vn -0.083959 0.996399 0.000000
vn -0.083959 0.996399 0.000000
vn -0.042086 0.999084 0.000000
vn 0.101325 0.994781 0.000000
vn 0.050876 0.998627 0.000000
vn 0.050876 0.998627 0.000000
vn 0.101325 0.994781 0.000000
vn -0.021699 0.999664 -0.011811
vn 0.000000 1.000000 0.000000
vn 0.000000 1.000000 0.000000
vn -0.021699 0.999664 -0.011811
vn -0.007966 0.999573 -0.027437
vn -0.041079 0.998810 -0.022859
vn -0.041079 0.998810 -0.022859
vn -0.007905 0.999573 -0.027437
vn -0.048556 0.998749 0.000458
vn -0.097693 0.995178 0.001007
vn -0.097693 0.995178 0.001007
vn -0.048556 0.998749 0.000458
vn -0.020173 0.999145 -0.035952
vn -0.040347 0.998810 -0.023958
vn -0.040347 0.998810 -0.023958
vn -0.020112 0.999145 -0.035982
vn 0.000000 -1.000000 0.000000
vn 0.000000 -1.000000 0.000000
vn 0.000000 -1.000000 0.000000
vn 0.000000 -1.000000 0.000000
vn 0.000000 -1.000000 0.000000
vn 0.000000 -1.000000 0.000000
vn 0.000000 -1.000000 0.000000
vn 0.000000 -1.000000 0.000000
vn 0.000000 -1.000000 0.000000
vn 0.000000 -1.000000 0.000000
vn 0.000000 -1.000000 0.000000
vn 0.000000 -1.000000 0.000000
vn 0.000000 -1.000000 0.000000
vn 0.000000 -1.000000 0.000000
vn 0.000000 -1.000000 0.000000
vn 0.000000 -1.000000 0.000000
vn 0.000000 -1.000000 0.000000
vn 0.000000 -1.000000 0.000000
vn 0.000000 -1.000000 0.000000
vn 0.000000 -1.000000 0.000000
vn 0.000000 -1.000000 0.000000
vn 0.000000 -1.000000 0.000000
vn 0.000000 -1.000000 0.000000
vn 0.000000 -1.000000 0.000000
vn 0.000000 0.000000 1.000000
vn 0.000000 0.000000 1.000000
vn 0.000000 0.000000 1.000000
vn 0.000000 0.000000 1.000000
vn 1.000000 0.000000 0.000000
vn 1.000000 0.000000 0.000000
vn 1.000000 0.000000 0.000000
vn 1.000000 0.000000 0.000000
vn 0.000000 0.000000 -1.000000
vn 0.000000 0.000000 -1.000000
vn 0.000000 0.000000 -1.000000
vn 0.000000 0.000000 -1.000000
vn -1.000000 0.000000 0.000000
vn -1.000000 0.000000 0.000000
vn -1.000000 0.000000 0.000000
vn -1.000000 0.000000 0.000000
vn 0.000000 0.000000 1.000000
vn 0.000000 0.000000 1.000000
vn 0.000000 0.000000 1.000000
vn 0.000000 0.000000 1.000000
vn 0.999969 0.000000 -0.002472
vn 0.999969 0.000000 -0.002472
vn 0.999969 0.000000 -0.002472
vn 0.999969 0.000000 -0.002472
vn 0.000000 0.000000 -1.000000
vn 0.000000 0.000000 -1.000000
vn 0.000000 0.000000 -1.000000
vn 0.000000 0.000000 -1.000000
vn -1.000000 0.000000 0.000000
vn -1.000000 0.000000 0.000000
vn -1.000000 0.000000 0.000000
vn -1.000000 0.000000 0.000000
vn 0.000000 0.000000 1.000000
vn 0.000000 0.000000 1.000000
vn 0.000000 0.000000 1.000000
vn 0.000000 0.000000 1.000000
vn 0.999756 0.000000 -0.021455
vn 0.999756 0.000000 -0.021455
vn 0.999756 0.000000 -0.021455
vn 0.999756 0.000000 -0.021455
vn 0.000000 0.000000 -1.000000
vn 0.000000 0.000000 -1.000000
vn 0.000000 0.000000 -1.000000
vn 0.000000 0.000000 -1.000000
vn -1.000000 0.000000 0.000000
vn -1.000000 0.000000 0.000000
vn -1.000000 0.000000 0.000000
vn -1.000000 0.000000 0.000000
vn 0.000000 0.000000 1.000000
vn 0.000000 0.000000 1.000000
vn 0.000000 0.000000 1.000000
vn 0.000000 0.000000 1.000000
vn 0.999969 0.000000 -0.005036
vn 0.999969 0.000000 -0.005036
vn 0.999969 0.000000 -0.005036
vn 0.999969 0.000000 -0.005036
vn 0.000000 0.000000 -1.000000
vn 0.000397 -0.002625 -0.999969
vn 0.000397 -0.002594 -0.999969
vn 0.000000 0.000000 -1.000000
vn -1.000000 0.000000 0.000000
vn -1.000000 0.000000 0.000000
vn -1.000000 0.000000 0.000000
vn -1.000000 0.000000 0.000000
vn 0.000000 0.000000 1.000000
vn 0.000000 0.000000 1.000000
vn 0.000000 0.000000 1.000000
vn 0.000000 0.000000 1.000000
vn 0.999725 0.000000 -0.022371
vn 0.999725 0.000000 -0.022371
vn 0.999725 0.000000 -0.022371
vn 0.999725 0.000000 -0.022371
vn 0.000000 0.000000 -1.000000
vn 0.000000 0.000000 -1.000000
vn 0.000000 0.000000 -1.000000
vn 0.000000 0.000000 -1.000000
vn -1.000000 0.000000 0.000000
vn -1.000000 0.000000 0.000000
vn -1.000000 0.000000 0.000000
vn -1.000000 0.000000 0.000000
vn 0.000000 0.000000 1.000000
vn 0.000000 0.000000 1.000000
vn 0.000000 0.000000 1.000000
vn 0.000000 0.000000 1.000000
vn 1.000000 0.000000 0.000000
vn 1.000000 0.000000 0.000000
vn 1.000000 0.000000 0.000000
vn 1.000000 0.000000 0.000000
vn 0.000000 0.000000 -1.000000
vn 0.000000 0.000000 -1.000000
vn 0.000000 0.000000 -1.000000
vn 0.000000 0.000000 -1.000000
vn -1.000000 0.000000 0.000000
vn -1.000000 0.000000 0.000000
vn -1.000000 0.000000 0.000000
vn -1.000000 0.000000 0.000000
vn 0.000000 0.000000 -1.000000
vn 0.000000 0.000000 -1.000000
vn 0.000000 0.000000 -1.000000
vn 0.000000 0.000000 -1.000000
vn 0.000000 -1.000000 0.000000
vn 0.000000 -1.000000 0.000000
vn 0.000000 -1.000000 0.000000
vn 0.000000 -1.000000 0.000000
vn 0.000000 0.000000 1.000000
vn 0.000000 0.000000 1.000000
vn 0.000000 0.000000 1.000000
vn 0.000000 0.000000 1.000000
vn -0.050876 0.998627 0.000000
vn -0.050876 0.998627 0.000000
vn -0.101538 0.994751 0.000061
vn -0.101538 0.994751 0.000061
vn 0.042941 0.998718 -0.023469
vn 0.000000 0.999695 -0.023469
vn 0.000000 0.999695 -0.023469
vn 0.042941 0.998718 -0.023469
vn 0.000000 0.000000 1.000000
vn 0.000000 0.000000 1.000000
vn 0.000000 0.000000 1.000000
vn 0.000000 0.000000 1.000000
vn 0.000000 -1.000000 0.000000
vn 0.000000 -1.000000 0.000000
vn 0.000000 -1.000000 0.000000
vn 0.000000 -1.000000 0.000000
vn 0.000000 0.000000 -1.000000
vn 0.000000 0.000000 -1.000000
vn 0.000000 0.000000 -1.000000
vn 0.000000 0.000000 -1.000000
vn 0.016023 0.999817 -0.008942
vn 0.020479 0.999573 -0.020479
vn 0.020479 0.999573 -0.020479
vn 0.016023 0.999817 -0.008942
vn 0.000000 0.000000 1.000000
vn 0.000000 0.000000 1.000000
vn 0.000000 0.000000 1.000000
vn 0.000000 0.000000 1.000000
vn 0.000000 -1.000000 0.000000
vn 0.000000 -1.000000 0.000000
vn 0.000000 -1.000000 0.000000
vn 0.000000 -1.000000 0.000000
vn -0.000153 -0.004944 -0.999969
vn -0.000122 -0.004975 -0.999969
vn -0.001099 -0.004547 -0.999969
vn -0.001099 -0.004547 -0.999969
vn 0.095923 0.995361 0.000000
vn 0.048068 0.998779 0.000000
vn 0.048068 0.998779 0.000000
vn 0.095923 0.995361 0.000000
vn 0.000000 0.000000 1.000000
vn 0.000000 0.000000 1.000000
vn 0.000000 0.000000 1.000000
vn 0.000000 0.000000 1.000000
vn 0.000000 -1.000000 0.000000
vn 0.000000 -1.000000 0.000000
vn 0.000000 -1.000000 0.000000
vn 0.000000 -1.000000 0.000000
vn 0.000000 0.000000 -1.000000
vn 0.000000 0.000000 -1.000000
vn 0.000000 0.000000 -1.000000
vn 0.000000 0.000000 -1.000000
vn 0.040347 0.998810 -0.023958
vn 0.020173 0.999145 -0.035952
vn 0.020112 0.999145 -0.035982
vn 0.040347 0.998810 -0.023958
vn 0.000000 0.000000 1.000000
vn 0.000000 0.000000 1.000000
vn 0.000000 0.000000 1.000000
vn 0.000000 0.000000 1.000000
vn 0.000000 -1.000000 0.000000
vn 0.000000 -1.000000 0.000000
vn 0.000000 -1.000000 0.000000
vn 0.000000 -1.000000 0.000000
vn 0.000000 0.000000 -1.000000
vn 0.000000 0.000000 -1.000000
vn 0.000000 0.000000 -1.000000
vn 0.000000 0.000000 -1.000000
vn 0.083959 0.996399 0.000000
vn 0.042086 0.999084 0.000000
vn 0.042086 0.999084 0.000000
vn 0.083959 0.996399 0.000000
vn 0.000000 0.000000 1.000000
vn 0.000000 0.000000 1.000000
vn 0.000000 0.000000 1.000000
vn 0.000000 0.000000 1.000000
vn 0.000000 -1.000000 0.000000
vn 0.000000 -1.000000 0.000000
vn 0.000000 -1.000000 0.000000
vn 0.000000 -1.000000 0.000000
vn 0.000000 0.000000 -1.000000
vn 0.000000 0.000000 -1.000000
vn 0.000000 0.000000 -1.000000
vn 0.000000 0.000000 -1.000000
vn 0.000000 -0.930477 0.366172
vn 0.000000 -0.930477 0.366172
vn 0.000000 -0.930477 0.366172
vn 0.000000 -0.930477 0.366172
vn 0.000000 0.855857 0.517060
vn 0.000000 0.855857 0.517060
vn 0.000000 0.855857 0.517060
vn 0.000000 0.855857 0.517060
vn 0.000000 0.943325 -0.331838
vn 0.000000 0.943325 -0.331838
vn 0.000000 0.934658 -0.355460
vn 0.000000 0.934658 -0.355460
vn 0.000000 -0.855857 -0.517060
vn 0.000000 -0.855857 -0.517060
vn 0.000000 -0.855857 -0.517060
vn 0.000000 -0.855857 -0.517060
vn 1.000000 0.000000 0.000000
vn 1.000000 0.000000 0.000000
vn 1.000000 0.000000 0.000000
vn 1.000000 0.000000 0.000000
vn -1.000000 0.000000 0.000000
vn -1.000000 0.000000 0.000000
vn -1.000000 0.000000 0.000000
vn -1.000000 0.000000 0.000000
vn -1.000000 0.000000 0.000000
vn -1.000000 0.000000 0.000000
vn -1.000000 0.000000 0.000000
vn -1.000000 0.000000 0.000000
vn 0.000000 -0.930477 0.366172
vn 0.000000 -0.930477 0.366172
vn 0.000000 -0.930477 0.366172
vn 0.000000 -0.930477 0.366172
vn 1.000000 0.000000 0.000000
vn 1.000000 0.000000 0.000000
vn 1.000000 0.000000 0.000000
vn 1.000000 0.000000 0.000000
vn 0.000000 0.923793 -0.382805
vn 0.000000 0.923793 -0.382805
vn 0.000000 0.921962 -0.387048
vn 0.000000 0.921962 -0.387048
# 192 uv coords
vt 0.090825 0.356248
vt 0.141948 0.388348
vt 0.061894 0.356241
vt 0.089048 0.647512
vt 0.141948 0.678545
vt 0.061894 0.647541
vt 0.662736 0.593671
vt 0.662984 0.607888
vt 0.660991 0.493689
vt 0.593363 0.594882
vt 0.593611 0.609098
vt 0.591618 0.494900
vt 0.899813 0.023871
vt 0.903136 0.150725
vt 0.903600 0.168473
vt 0.830402 0.025688
vt 0.833723 0.152543
vt 0.834188 0.170291
vt 0.904036 0.725922
vt 0.904036 0.849457
vt 0.904036 0.867211
vt 0.834634 0.725922
vt 0.834634 0.849457
vt 0.834634 0.867211
vt 0.529103 0.739740
vt 0.526045 0.856491
vt 0.525668 0.870897
vt 0.459742 0.737924
vt 0.456684 0.854675
vt 0.456307 0.869081
vt 0.515106 0.023169
vt 0.513067 0.139977
vt 0.512757 0.157729
vt 0.445732 0.021958
vt 0.443693 0.138767
vt 0.443384 0.156518
vt 0.898597 0.326790
vt 0.901655 0.443531
vt 0.902042 0.458356
vt 0.829237 0.328606
vt 0.832294 0.445347
vt 0.832682 0.460173
vt 0.267012 0.355987
vt 0.318713 0.387154
vt 0.238018 0.356500
vt 0.270461 0.647231
vt 0.323865 0.677309
vt 0.243355 0.647752
vt 0.248591 0.933580
vt 0.205206 0.970778
vt 0.187843 0.680328
vt 0.185507 0.389030
vt 0.187033 0.098697
vt 0.232656 0.063817
vt 0.281248 0.990498
vt 0.251064 0.991253
vt 0.280351 0.932901
vt 0.329014 0.967387
vt 0.354663 0.676779
vt 0.358855 0.966855
vt 0.233102 0.006083
vt 0.263294 0.005797
vt 0.264310 0.063388
vt 0.313564 0.097152
vt 0.349227 0.386628
vt 0.343421 0.096614
vt 0.141948 0.968668
vt 0.093749 0.933313
vt 0.172748 0.678561
vt 0.171776 0.968666
vt 0.093507 0.063646
vt 0.141948 0.098305
vt 0.172460 0.388360
vt 0.093573 0.990916
vt 0.063380 0.991127
vt 0.061894 0.933416
vt 0.017860 0.969817
vt 0.005797 0.679098
vt 0.171823 0.098291
vt 0.008791 0.387803
vt 0.015627 0.097547
vt 0.061894 0.063509
vt 0.063315 0.005797
vt 0.093507 0.006047
vt 0.732152 0.592460
vt 0.730407 0.492478
vt 0.522100 0.496114
vt 0.523845 0.596096
vt 0.506093 0.596406
vt 0.524093 0.610312
vt 0.504348 0.496424
vt 0.521851 0.481897
vt 0.525838 0.710294
vt 0.591370 0.480684
vt 0.595356 0.709080
vt 0.660743 0.479472
vt 0.664730 0.707870
vt 0.734146 0.706658
vt 0.732400 0.606676
vt 0.749904 0.592150
vt 0.730159 0.478261
vt 0.748159 0.492168
vt 0.748250 0.154781
vt 0.744928 0.027927
vt 0.762677 0.027462
vt 0.765998 0.154317
vt 0.766463 0.172064
vt 0.762250 0.011206
vt 0.829976 0.009432
vt 0.837510 0.297119
vt 0.769784 0.298893
vt 0.899388 0.007614
vt 0.906921 0.295301
vt 0.972547 0.148907
vt 0.973012 0.166656
vt 0.968800 0.005797
vt 0.969226 0.022054
vt 0.986974 0.021589
vt 0.990296 0.148443
vt 0.976333 0.293484
vt 0.991182 0.725922
vt 0.991182 0.849457
vt 0.973427 0.849457
vt 0.973427 0.725922
vt 0.973427 0.867211
vt 0.904036 0.710145
vt 0.973427 0.710145
vt 0.973427 0.990695
vt 0.904036 0.990695
vt 0.834634 0.710145
vt 0.834634 0.990695
vt 0.765581 0.867211
vt 0.765581 0.849457
vt 0.747826 0.849457
vt 0.747826 0.725922
vt 0.765581 0.725922
vt 0.765581 0.710145
vt 0.765581 0.990695
vt 0.616340 0.742024
vt 0.613284 0.858775
vt 0.595535 0.858310
vt 0.598592 0.741560
vt 0.595157 0.872716
vt 0.529480 0.725334
vt 0.598969 0.727154
vt 0.592100 0.989466
vt 0.522610 0.987646
vt 0.460119 0.723518
vt 0.453250 0.985830
vt 0.388385 0.867302
vt 0.388762 0.852896
vt 0.371014 0.852432
vt 0.374072 0.735681
vt 0.391820 0.736145
vt 0.392197 0.721740
vt 0.385328 0.984051
vt 0.373964 0.155307
vt 0.374274 0.137556
vt 0.441346 0.273283
vt 0.371926 0.272071
vt 0.510719 0.274493
vt 0.356522 0.137245
vt 0.358561 0.020436
vt 0.376313 0.020745
vt 0.376574 0.005797
vt 0.445993 0.007010
vt 0.582487 0.141190
vt 0.582176 0.158941
vt 0.580138 0.275705
vt 0.515367 0.008220
vt 0.584786 0.009432
vt 0.584526 0.024380
vt 0.602277 0.024690
vt 0.600239 0.141500
vt 0.905100 0.575099
vt 0.835739 0.576915
vt 0.763223 0.461992
vt 0.762835 0.447166
vt 0.971114 0.441712
vt 0.971502 0.456537
vt 0.974559 0.573280
vt 0.766280 0.578734
vt 0.828849 0.313780
vt 0.898210 0.311964
vt 0.745087 0.447631
vt 0.742029 0.330889
vt 0.759778 0.330425
vt 0.759390 0.315599
vt 0.967669 0.310145
vt 0.968057 0.324971
vt 0.985805 0.324506
vt 0.988862 0.441248
# 112 polygons
usemtl initialShadingGroup
s 1
g group2 pCube9
f 14/5/1 15/69/2 4/70/3 3/67/4
s off
f 3/74/5 4/75/6 6/76/7 5/68/8
s 2
f 5/68/9 6/76/10 16/6/11 13/4/12
s off
f 7/71/13 8/82/14 2/83/15 1/84/16
s 3
f 15/78/17 16/6/18 6/76/19 4/77/20
s 4
f 13/4/21 14/5/22 3/67/23 5/68/24
f 7/71/25 1/72/26 10/2/27 9/1/28
s 1
f 1/72/29 2/79/30 11/73/31 10/2/32
s 3
f 2/81/33 8/82/34 12/3/35 11/80/36
s 2
f 9/1/37 12/3/38 8/82/39 7/71/40
s 4
f 9/1/28 10/2/27 14/5/22 13/4/21
s 1
f 10/2/32 11/73/31 15/69/2 14/5/1
s 3
f 11/80/36 12/3/35 16/6/18 15/78/17
s 2
f 13/4/12 16/6/11 12/3/38 9/1/37
s 1
g group2 pCube10
f 110/41/41 42/178/42 43/187/43 109/40/44
s 2
f 46/87/45 72/12/46 69/10/47 48/88/48
s 3
f 78/17/49 49/106/50 51/105/51 77/16/52
s 4
f 86/23/53 53/133/54 55/136/55 85/22/56
s 5
f 94/29/57 57/151/58 59/154/59 93/28/60
s 6
f 102/35/61 61/158/62 63/164/63 101/34/64
s 7
f 111/42/65 112/176/66 39/182/67 38/177/68
s 8
f 20/93/69 17/90/70 70/11/71 71/95/72
s 9
f 79/18/73 80/110/74 23/111/75 21/107/76
s 10
f 87/24/77 88/131/78 27/138/79 25/132/80
s 11
f 95/30/81 96/149/82 31/156/83 29/150/84
s 12
f 103/36/85 104/159/86 35/160/87 33/157/88
s 13
f 111/42/89 38/177/90 42/178/91 110/41/92
s off
f 38/185/93 39/186/94 43/187/95 42/178/96
s 14
f 39/188/97 112/183/98 109/40/99 43/187/100
s off
f 40/191/101 37/192/102 41/179/103 44/190/104
s 15
f 20/92/105 71/94/106 72/12/107 46/87/108
s off
f 19/102/109 18/100/110 47/85/111 45/86/112
s 16
f 70/11/113 17/90/114 48/88/115 69/10/116
s off
f 17/89/117 20/91/118 46/87/119 48/88/120
s 17
f 79/18/121 21/107/122 49/106/123 78/17/124
s off
f 21/103/125 23/104/126 51/105/127 49/106/128
s 18
f 23/108/129 80/109/130 77/16/131 51/105/132
s off
f 24/118/133 22/119/134 50/114/135 52/117/136
s 19
f 87/24/137 25/132/138 53/133/139 86/23/140
s off
f 25/134/141 27/135/142 55/136/143 53/133/144
s 20
f 27/137/145 88/130/146 85/22/147 55/136/148
s off
f 28/121/149 26/122/150 54/123/151 56/124/152
s 21
f 95/30/153 29/150/154 57/151/155 94/29/156
s off
f 29/152/157 31/153/158 59/154/159 57/151/160
s 22
f 31/155/161 96/148/162 93/28/163 59/154/164
s off
f 32/139/165 30/140/166 58/141/167 60/142/168
s 23
f 103/36/169 33/157/170 61/158/171 102/35/172
s off
f 33/162/173 35/163/174 63/164/175 61/158/176
s 24
f 35/165/177 104/166/178 101/34/179 63/164/180
s off
f 36/173/181 34/174/182 62/167/183 64/172/184
s 16
f 18/99/185 66/8/186 65/7/187 47/85/188
s 8
f 67/97/189 66/8/190 18/99/191 19/98/192
s 15
f 68/9/193 67/96/194 19/101/195 45/86/196
s 2
f 65/7/197 68/9/198 45/86/199 47/85/200
s 16
f 66/8/186 70/11/113 69/10/116 65/7/187
s 8
f 71/95/72 70/11/71 66/8/190 67/97/189
s 15
f 72/12/107 71/94/106 67/96/194 68/9/193
s 2
f 69/10/47 72/12/46 68/9/198 65/7/197
s 3
f 50/114/201 74/14/202 73/13/203 52/117/204
s 17
f 22/115/205 75/15/206 74/14/207 50/114/208
s 9
f 22/115/209 24/120/210 76/113/211 75/15/212
s 18
f 73/13/213 76/112/214 24/116/215 52/117/216
s 3
f 74/14/202 78/17/49 77/16/52 73/13/203
s 17
f 75/15/206 79/18/121 78/17/124 74/14/207
s 9
f 75/15/212 76/113/211 80/110/74 79/18/73
s 18
f 77/16/131 80/109/130 76/112/214 73/13/213
s 4
f 54/123/217 82/20/218 81/19/219 56/124/220
s 19
f 26/125/221 83/21/222 82/20/223 54/123/224
s 10
f 26/125/225 28/128/226 84/129/227 83/21/228
s 20
f 81/19/229 84/126/230 28/127/231 56/124/232
s 4
f 82/20/218 86/23/53 85/22/56 81/19/219
s 19
f 83/21/222 87/24/137 86/23/140 82/20/223
s 10
f 83/21/228 84/129/227 88/131/78 87/24/77
s 20
f 85/22/147 88/130/146 84/126/230 81/19/229
s 5
f 58/141/233 90/26/234 89/25/235 60/142/236
s 21
f 30/143/237 91/27/238 90/26/239 58/141/240
s 11
f 30/143/241 32/146/242 92/147/243 91/27/244
s 22
f 89/25/245 92/144/246 32/145/247 60/142/248
s 5
f 90/26/234 94/29/57 93/28/60 89/25/235
s 21
f 91/27/238 95/30/153 94/29/156 90/26/239
s 11
f 91/27/244 92/147/243 96/149/82 95/30/81
s 22
f 93/28/163 96/148/162 92/144/246 89/25/245
s 6
f 62/167/249 98/32/250 97/31/251 64/172/252
s 23
f 34/168/253 99/33/254 98/32/255 62/167/256
s 12
f 34/168/257 36/169/258 100/161/259 99/33/260
s 24
f 97/31/261 100/170/262 36/171/263 64/172/264
s 6
f 98/32/250 102/35/61 101/34/64 97/31/251
s 23
f 99/33/254 103/36/169 102/35/172 98/32/255
s 12
f 99/33/260 100/161/259 104/159/86 103/36/85
s 24
f 101/34/179 104/166/178 100/170/262 97/31/261
s 1
f 41/179/265 106/38/266 105/37/267 44/190/268
s 13
f 37/180/269 107/39/270 106/38/271 41/179/272
s 7
f 37/180/273 40/181/274 108/175/275 107/39/276
s 14
f 105/37/277 108/184/278 40/189/279 44/190/280
s 1
f 106/38/266 110/41/41 109/40/44 105/37/267
s 13
f 107/39/270 111/42/89 110/41/92 106/38/271
s 7
f 107/39/276 108/175/275 112/176/66 111/42/65
s 14
f 109/40/99 112/183/98 108/184/278 105/37/277
s 1
g group2 pCube11
f 126/47/281 127/59/282 116/60/283 115/58/284
s off
f 115/55/285 116/56/286 118/49/287 117/57/288
s 2
f 117/57/289 118/49/290 128/48/291 125/46/292
s off
f 119/63/293 120/54/294 114/61/295 113/62/296
s 3
f 127/51/297 128/48/298 118/49/299 116/50/300
s 4
f 125/46/301 126/47/302 115/58/303 117/57/304
f 119/63/305 113/64/306 122/44/307 121/43/308
s 1
f 113/64/309 114/66/310 123/65/311 122/44/312
s 3
f 114/53/313 120/54/314 124/45/315 123/52/316
s 2
f 121/43/317 124/45/318 120/54/319 119/63/320
s 4
f 121/43/308 122/44/307 126/47/302 125/46/301
s 1
f 122/44/312 123/65/311 127/59/282 126/47/281
s 3
f 123/52/316 124/45/315 128/48/298 127/51/297
s 2
f 125/46/292 128/48/291 124/45/318 121/43/317
# totals: 128 192 320 112
